<svg width="708" height="692" viewBox="0 0 708 692" fill="none" xmlns="http://www.w3.org/2000/svg">
<path d="M573.025 131.518L573.864 132.352C574.554 137.2 555.151 210.145 552.601 220.329L466.082 561.219L433.508 691.586C386.869 650.036 340.004 608.736 292.916 567.685C252.644 602.136 211.858 640.466 171.221 673.986L170.871 628.176L169.664 470.12C151.236 459.221 129.057 448.284 109.85 438.413L0 382.128L310.193 246.419C397.202 208.678 486.652 170.562 573.025 131.518ZM64.017 383.781C106.692 405.212 155.608 429.553 197.261 452.55L198.207 594.528C209.576 566.501 227.286 532.701 240.33 504.654C248.382 511.99 254.006 516.943 263.547 522.706C276.677 530.379 291.581 533.46 302.248 539.691C314.175 546.659 331.902 564.391 342.906 574.119L417.301 639.856L486.569 368.592C500.014 315.211 513.529 257.863 528.365 205.259C510.976 227.655 479.181 263.38 459.436 284.899C452.829 279.027 445.328 272.644 438.957 266.63L480.256 219.342C485.908 212.884 496.624 201.368 501.217 194.963L499.414 194.404C423.547 228.355 346.198 260.866 269.985 294.301C202.178 324.048 132.393 355.588 64.017 383.781Z" fill="#24272B"/>
<path d="M320.31 382.824C349.075 361.378 382.432 339.764 412.278 319.316C400.605 342.436 388.795 365.486 376.849 388.466C373.567 394.679 363.165 414.438 359.215 419.49C333.766 435.403 308.08 450.932 282.165 466.074C293.653 440.548 307.246 406.755 320.31 382.824ZM348.326 410.301C352.111 407.115 353.74 402.046 352.519 397.252C351.298 392.458 347.442 388.785 342.595 387.797C337.747 386.81 332.762 388.682 329.763 392.616C325.777 397.846 326.363 405.237 331.124 409.773C335.885 414.308 343.296 414.536 348.326 410.301Z" fill="#24272B"/>
<path d="M320.31 382.824C323.651 385.925 327.229 388.882 329.763 392.616C325.777 397.846 326.363 405.237 331.124 409.773C335.885 414.308 343.296 414.536 348.326 410.301C351.927 413.312 355.716 416.392 359.215 419.49C333.766 435.403 308.08 450.932 282.165 466.074C293.653 440.548 307.246 406.755 320.31 382.824Z" fill="#175F3F"/>
<path d="M431.764 336.905C435.663 339.27 464.596 364.804 470.726 369.804L453.537 373.127C454.788 378.757 456.12 384.687 456.728 390.411C460.36 422.095 451.107 453.91 431.048 478.704L439.627 497.843C433.669 495.021 427.461 492.3 421.442 489.57C379.734 526.368 327.872 535.566 278.392 507.624L285.907 497.995C289.056 497.167 295.992 500.998 300.443 502.46C315.107 507.275 324.459 509.738 339.956 509.598C339.671 503.837 338.324 493.058 341.875 488.82C345.989 492.631 346.354 503.614 346.919 509.317C384.575 506.669 419.171 480.229 434.219 446.308C442.225 428.259 443.798 413.591 443.134 394.405C436.402 396.286 426.277 397.999 419.592 395.676L419.26 394.358C424.353 389.798 435.25 389.556 442.182 388.862L439.74 377.838C435.012 380.555 429.756 383.208 424.9 385.77L431.764 336.905Z" fill="#175F3F" fill-opacity="0.988235"/>
<path d="M255.715 318.293C296.638 282.646 350.731 275.061 398.018 302.965C395.99 306.521 392.648 311.284 390.321 314.815C370.523 304.513 357.972 301.189 335.56 300.002C336.575 307.88 338.202 314.088 335.456 321.561L333.916 322.048C329.195 316.653 329.448 307.932 328.896 300.738C322.563 301.599 316.298 302.899 310.145 304.628C268.408 316.409 237.798 349.239 233.208 393.174C232.622 398.779 231.93 407.314 233.505 412.693L234.624 415.001L233.518 418.067C233.87 422.675 235.203 426.884 236.414 431.344C241.465 428.11 246.663 424.381 251.622 420.955C248.701 434.038 246.028 457.017 243.955 471.172C233.869 465.02 214.435 447.61 204.747 439.348L222.678 435.595C213.548 395.093 219.97 362.046 245.663 329.079C244.025 324.118 240.96 317.412 238.87 312.457C243.896 313.723 250.674 316.431 255.715 318.293Z" fill="#175F3F"/>
<path d="M428.558 280.188C436.717 286.432 432.917 298.906 432.06 308.753C436.219 304.442 439.223 298.639 443.9 296.257C447.405 296.39 446.051 295.978 449.017 298.323L449.132 300.241C444.935 306.713 435.3 316.636 429.738 322.675C422.001 317.056 425.612 302.846 426.502 293.991C422.675 297.683 417.443 303.891 413.765 307.992C411.736 306.318 410.736 305.796 409.743 303.342C410.833 297.463 423.691 285.462 428.558 280.188Z" fill="#24272B" fill-opacity="0.988235"/>
<path d="M275.245 331.023C278.566 333.432 278.114 332.391 279.471 335.692C278.811 340.287 274.918 346.857 272.731 351.825C278.29 349.109 285.389 343.781 291.152 346.265C293.288 351.768 287.283 360.35 284.513 365.45C290.131 362.502 298.906 355.526 304.548 357.149L305.909 359.666L303.929 361.717C298.123 365.173 285.03 374.74 279.034 371.15C277.097 364.793 281.57 358.313 284.645 352.277C279.497 355.135 269.866 362.076 264.95 357.298C264.1 350.881 272.049 337.422 275.245 331.023Z" fill="#175F3F" fill-opacity="0.988235"/>
<path d="M263.159 469.211C270.628 469.183 277.547 473.702 281.441 479.949C281.475 483.045 281.967 481.715 279.858 484.045C275.566 483.197 272.731 478.028 266.59 476.257C262.258 483.479 281.568 491.454 264.923 501.118C256.952 499.222 249.52 494.053 249.17 485.114L250.472 483.894C256.587 484.9 255.012 494.153 263.5 494.083L264.724 492.367C263.065 481.398 252.55 480.127 263.159 469.211Z" fill="#175F3F" fill-opacity="0.988235"/>
<path d="M401.113 441.016C405.09 443.54 414.493 451.037 414.833 455.777L413.373 457.266C407.432 456.443 407.048 450.735 401.329 450.113L399.548 452.049C400.06 457.599 406.336 458.028 406.73 462.487C404.496 464.724 405.823 464 402.493 464.493C399.27 461.577 397.223 459.94 393.767 457.357C392.73 459.198 392.68 459.49 392.053 461.528C395.015 467.789 400.889 466.395 400.726 472.77L398.766 474.439C394.695 474.361 386.442 465.386 382.456 461.784L401.113 441.016Z" fill="#175F3F" fill-opacity="0.988235"/>
<path d="M574.628 0C577.472 5.985 589.463 61.271 591.565 71.181C597.315 63.982 603.566 56.704 609.503 49.616C608.205 58.644 607.169 68.199 606.034 77.29C626.429 65.375 648.441 50.725 668.482 37.885C656.3 58.123 642.539 80.356 631.373 100.983C640.335 100.085 649.377 98.992 658.336 97.974C651.256 104.192 644.119 110.345 636.927 116.433C657.525 120.596 687.165 127.753 707.325 133.267C684.375 138.957 659.906 146.297 637.021 151.24C643.936 157.35 650.896 163.408 657.901 169.413C648.643 168.542 639.379 167.736 630.109 166.996C641.737 184.059 658.26 211.665 668.701 229.575C647.559 216.857 627.12 203.416 606.067 190.651L608.607 217.793C602.393 211.3 596.871 205.002 590.977 198.232C587.638 215.874 579.731 250.968 574.834 267.803C571.357 254.4 568.329 240.4 565.222 226.87C573.656 204.414 579.754 184.878 585.282 161.496L621.794 183.906L622.748 183.868C622.644 180.806 603.258 149.682 600.529 145.132L646.32 133.788C631.414 130.451 616.588 126.765 601.854 122.734C608.824 109.58 617.34 95.76 624.958 82.861L585.549 107.181C581.744 92.587 578.226 76.681 574.708 61.93C570.678 74.431 566.487 93.615 563.169 106.79C549.941 98.765 536.986 91.002 524.161 82.318C532.033 95.7 539.694 109.205 547.144 122.828C533.748 126.98 516.049 130.889 502.271 134.02L522.281 138.324C514.766 141.992 507.165 145.481 499.484 148.785C480.453 143.837 461.477 138.673 442.563 133.296C464.028 127.332 489.939 121.855 511.911 116.614L490.828 98.15C499.974 99.194 509.129 100.163 518.292 101.056C506.435 82.782 491.337 57.036 480.552 38.053L541.992 77.101L539.857 49.976C545.495 56.11 552.051 64.53 557.438 71.123C562.093 48.622 569.157 22.68 574.628 0Z" fill="#1B7A4E"/>
<path d="M703.146 74.4021C706.676 75.8381 707.256 78.1461 707.036 81.4811C703.186 86.7881 681.966 94.4291 674.776 97.4301C672.526 94.3671 671.196 92.6041 672.036 88.8861C676.946 83.3151 694.906 77.7691 703.146 74.4021Z" fill="#175F3F"/>
<path d="M525.147 2.21509C529.537 5.51609 537.84 27.3651 538.399 32.7661C536.893 35.0121 534.28 35.6901 531.696 36.7531C527.327 34.6121 519.653 11.8231 518.602 6.99408C520.448 3.94508 521.639 4.04909 525.147 2.21509Z" fill="#175F3F"/>
<path d="M615.58 229.369C619.312 231.787 626.126 252.313 628.115 257.578L619.222 261.291C616.002 258.688 608.806 238.417 607.89 233.661C609.268 231.644 613.149 230.415 615.58 229.369Z" fill="#175F3F"/>
<path d="M670.206 170.951C674.016 172.022 690.926 180.454 695.406 182.607L690.986 191.902C683.176 188.132 672.236 185.385 667.661 179.153C667.262 175.314 668.298 174.82 670.206 170.951Z" fill="#175F3F"/>
<path d="M456.557 75.8901C465.16 79.4711 473.82 81.1642 479.909 87.5912C480.843 91.6562 479.929 91.7881 478.159 96.1931C470.153 93.0291 459.528 90.5471 454.526 84.1191C453.953 80.3001 454.898 79.8311 456.557 75.8901Z" fill="#175F3F"/>
<path d="M621.451 11.804C624.915 12.992 625.778 13.055 628.452 15.39C630.374 21.593 622.851 33.198 619.52 39.975C603.615 40.567 617.969 18.953 621.451 11.804Z" fill="#175F3F" fill-opacity="0.988235"/>
</svg>
