<svg width="2145" height="692" viewBox="0 0 2145 692" fill="none" xmlns="http://www.w3.org/2000/svg">
<path d="M573.025 131.518L573.864 132.352C574.554 137.2 555.151 210.145 552.601 220.329L466.082 561.219L433.508 691.586C386.869 650.036 340.004 608.736 292.916 567.685C252.644 602.136 211.858 640.466 171.221 673.986L170.871 628.176L169.664 470.12C151.236 459.221 129.057 448.284 109.85 438.413L0 382.128L310.193 246.419C397.202 208.678 486.652 170.562 573.025 131.518ZM64.017 383.781C106.692 405.212 155.608 429.553 197.261 452.55L198.207 594.528C209.576 566.501 227.286 532.701 240.33 504.654C248.382 511.99 254.006 516.943 263.547 522.706C276.677 530.379 291.581 533.46 302.248 539.691C314.175 546.659 331.902 564.391 342.906 574.119L417.301 639.856L486.569 368.592C500.014 315.211 513.529 257.863 528.365 205.259C510.976 227.655 479.181 263.38 459.436 284.899C452.829 279.027 445.328 272.644 438.957 266.63L480.256 219.342C485.908 212.884 496.624 201.368 501.217 194.963L499.414 194.404C423.547 228.355 346.198 260.866 269.985 294.301C202.178 324.048 132.393 355.588 64.017 383.781Z" fill="#24272B"/>
<path d="M320.31 382.824C349.075 361.378 382.432 339.764 412.278 319.316C400.605 342.436 388.795 365.486 376.849 388.466C373.567 394.679 363.165 414.438 359.215 419.49C333.766 435.403 308.08 450.932 282.165 466.074C293.653 440.548 307.246 406.755 320.31 382.824ZM348.326 410.301C352.111 407.115 353.74 402.046 352.519 397.252C351.298 392.458 347.442 388.785 342.595 387.797C337.747 386.81 332.762 388.682 329.763 392.616C325.777 397.846 326.363 405.237 331.124 409.773C335.885 414.308 343.296 414.536 348.326 410.301Z" fill="#24272B"/>
<path d="M320.31 382.824C323.651 385.925 327.229 388.882 329.763 392.616C325.777 397.846 326.363 405.237 331.124 409.773C335.885 414.308 343.296 414.536 348.326 410.301C351.927 413.312 355.716 416.392 359.215 419.49C333.766 435.403 308.08 450.932 282.165 466.074C293.653 440.548 307.246 406.755 320.31 382.824Z" fill="#175F3F"/>
<path d="M431.764 336.905C435.663 339.27 464.596 364.804 470.726 369.804L453.537 373.127C454.788 378.757 456.12 384.687 456.728 390.411C460.36 422.095 451.107 453.91 431.048 478.704L439.627 497.843C433.669 495.021 427.461 492.3 421.442 489.57C379.734 526.368 327.872 535.566 278.392 507.624L285.907 497.995C289.056 497.167 295.992 500.998 300.443 502.46C315.107 507.275 324.459 509.738 339.956 509.598C339.671 503.837 338.324 493.058 341.875 488.82C345.989 492.631 346.354 503.614 346.919 509.317C384.575 506.669 419.171 480.229 434.219 446.308C442.225 428.259 443.798 413.591 443.134 394.405C436.402 396.286 426.277 397.999 419.592 395.676L419.26 394.358C424.353 389.798 435.25 389.556 442.182 388.862L439.74 377.838C435.012 380.555 429.756 383.208 424.9 385.77L431.764 336.905Z" fill="#175F3F" fill-opacity="0.988235"/>
<path d="M255.715 318.293C296.638 282.646 350.731 275.061 398.018 302.965C395.99 306.521 392.648 311.284 390.321 314.815C370.523 304.513 357.972 301.189 335.56 300.002C336.575 307.88 338.202 314.088 335.456 321.561L333.916 322.048C329.195 316.653 329.448 307.932 328.896 300.738C322.563 301.599 316.298 302.899 310.145 304.628C268.408 316.409 237.798 349.239 233.208 393.174C232.622 398.779 231.93 407.314 233.505 412.693L234.624 415.001L233.518 418.067C233.87 422.675 235.203 426.884 236.414 431.344C241.465 428.11 246.663 424.381 251.622 420.955C248.701 434.038 246.028 457.017 243.955 471.172C233.869 465.02 214.435 447.61 204.747 439.348L222.678 435.595C213.548 395.093 219.97 362.046 245.663 329.079C244.025 324.118 240.96 317.412 238.87 312.457C243.896 313.723 250.674 316.431 255.715 318.293Z" fill="#175F3F"/>
<path d="M428.558 280.188C436.717 286.432 432.917 298.906 432.06 308.753C436.219 304.442 439.223 298.639 443.9 296.257C447.405 296.39 446.051 295.978 449.017 298.323L449.132 300.241C444.935 306.713 435.3 316.636 429.738 322.675C422.001 317.056 425.612 302.846 426.502 293.991C422.675 297.683 417.443 303.891 413.765 307.992C411.736 306.318 410.736 305.796 409.743 303.342C410.833 297.463 423.691 285.462 428.558 280.188Z" fill="#24272B" fill-opacity="0.988235"/>
<path d="M275.245 331.023C278.566 333.432 278.114 332.391 279.471 335.692C278.811 340.287 274.918 346.857 272.731 351.825C278.29 349.109 285.389 343.781 291.152 346.265C293.288 351.768 287.283 360.35 284.513 365.45C290.131 362.502 298.906 355.526 304.548 357.149L305.909 359.666L303.929 361.717C298.123 365.173 285.03 374.74 279.034 371.15C277.097 364.793 281.57 358.313 284.645 352.277C279.497 355.135 269.866 362.076 264.95 357.298C264.1 350.881 272.049 337.422 275.245 331.023Z" fill="#175F3F" fill-opacity="0.988235"/>
<path d="M263.159 469.211C270.628 469.183 277.547 473.702 281.441 479.949C281.475 483.045 281.967 481.715 279.858 484.045C275.566 483.197 272.731 478.028 266.59 476.257C262.258 483.479 281.568 491.454 264.923 501.118C256.952 499.222 249.52 494.053 249.17 485.114L250.472 483.894C256.587 484.9 255.012 494.153 263.5 494.083L264.724 492.367C263.065 481.398 252.55 480.127 263.159 469.211Z" fill="#175F3F" fill-opacity="0.988235"/>
<path d="M401.113 441.016C405.09 443.54 414.493 451.037 414.833 455.777L413.373 457.266C407.432 456.443 407.048 450.735 401.329 450.113L399.548 452.049C400.06 457.599 406.336 458.028 406.73 462.487C404.496 464.724 405.823 464 402.493 464.493C399.27 461.577 397.223 459.94 393.767 457.357C392.73 459.198 392.68 459.49 392.053 461.528C395.015 467.789 400.889 466.395 400.726 472.77L398.766 474.439C394.695 474.361 386.442 465.386 382.456 461.784L401.113 441.016Z" fill="#175F3F" fill-opacity="0.988235"/>
<path d="M574.628 0C577.472 5.985 589.463 61.271 591.565 71.181C597.315 63.982 603.566 56.704 609.503 49.616C608.205 58.644 607.169 68.199 606.034 77.29C626.429 65.375 648.441 50.725 668.482 37.885C656.3 58.123 642.539 80.356 631.373 100.983C640.335 100.085 649.377 98.992 658.336 97.974C651.256 104.192 644.119 110.345 636.927 116.433C657.525 120.596 687.165 127.753 707.325 133.267C684.375 138.957 659.906 146.297 637.021 151.24C643.936 157.35 650.896 163.408 657.901 169.413C648.643 168.542 639.379 167.736 630.109 166.996C641.737 184.059 658.26 211.665 668.701 229.575C647.559 216.857 627.12 203.416 606.067 190.651L608.607 217.793C602.393 211.3 596.871 205.002 590.977 198.232C587.638 215.874 579.731 250.968 574.834 267.803C571.357 254.4 568.329 240.4 565.222 226.87C573.656 204.414 579.754 184.878 585.282 161.496L621.794 183.906L622.748 183.868C622.644 180.806 603.258 149.682 600.529 145.132L646.32 133.788C631.414 130.451 616.588 126.765 601.854 122.734C608.824 109.58 617.34 95.76 624.958 82.861L585.549 107.181C581.744 92.587 578.226 76.681 574.708 61.93C570.678 74.431 566.487 93.615 563.169 106.79C549.941 98.765 536.986 91.002 524.161 82.318C532.033 95.7 539.694 109.205 547.144 122.828C533.748 126.98 516.049 130.889 502.271 134.02L522.281 138.324C514.766 141.992 507.165 145.481 499.484 148.785C480.453 143.837 461.477 138.673 442.563 133.296C464.028 127.332 489.939 121.855 511.911 116.614L490.828 98.15C499.974 99.194 509.129 100.163 518.292 101.056C506.435 82.782 491.337 57.036 480.552 38.053L541.992 77.101L539.857 49.976C545.495 56.11 552.051 64.53 557.438 71.123C562.093 48.622 569.157 22.68 574.628 0Z" fill="#1B7A4E"/>
<path d="M703.146 74.4021C706.676 75.8381 707.256 78.1461 707.036 81.4811C703.186 86.7881 681.966 94.4291 674.776 97.4301C672.526 94.3671 671.196 92.6041 672.036 88.8861C676.946 83.3151 694.906 77.7691 703.146 74.4021Z" fill="#175F3F"/>
<path d="M525.147 2.21509C529.537 5.51609 537.84 27.3651 538.399 32.7661C536.893 35.0121 534.28 35.6901 531.696 36.7531C527.327 34.6121 519.653 11.8231 518.602 6.99408C520.448 3.94508 521.639 4.04909 525.147 2.21509Z" fill="#175F3F"/>
<path d="M615.58 229.369C619.312 231.787 626.126 252.313 628.115 257.578L619.222 261.291C616.002 258.688 608.806 238.417 607.89 233.661C609.268 231.644 613.149 230.415 615.58 229.369Z" fill="#175F3F"/>
<path d="M670.206 170.951C674.016 172.022 690.926 180.454 695.406 182.607L690.986 191.902C683.176 188.132 672.236 185.385 667.661 179.153C667.262 175.314 668.298 174.82 670.206 170.951Z" fill="#175F3F"/>
<path d="M456.557 75.8901C465.16 79.4711 473.82 81.1642 479.909 87.5912C480.843 91.6562 479.929 91.7881 478.159 96.1931C470.153 93.0291 459.528 90.5471 454.526 84.1191C453.953 80.3001 454.898 79.8311 456.557 75.8901Z" fill="#175F3F"/>
<path d="M621.451 11.804C624.915 12.992 625.778 13.055 628.452 15.39C630.374 21.593 622.851 33.198 619.52 39.975C603.615 40.567 617.969 18.953 621.451 11.804Z" fill="#175F3F" fill-opacity="0.988235"/>
<path d="M233.505 412.693C239.832 411.585 250.616 408.759 255.921 412.068C254.511 417.674 238.715 417.906 233.518 418.067L234.624 415.001L233.505 412.693Z" fill="#175F3F" fill-opacity="0.988235"/>
<path d="M1003.61 231.456L1045.4 231.584C1045.41 254.002 1045.85 278.305 1045 300.561C1055.46 289.361 1068.58 283.797 1083.82 282.755C1102.69 281.376 1121.35 287.529 1135.7 299.869C1166.88 327.102 1167.37 377.586 1140.09 407.875C1139.47 408.542 1138.82 409.187 1138.15 409.809C1111.85 434.152 1068.32 437.066 1043.52 408.896C1043.83 414.748 1043.85 421.085 1043.98 426.981L1003.59 426.936L1003.61 231.456ZM1086.73 394.283C1132.57 383.303 1125.42 313.918 1075.66 317.451C1030.1 328.811 1035.92 396.757 1086.73 394.283Z" fill="#24272B"/>
<path d="M1187.13 242.276L1244.36 242.263C1261.64 242.222 1275.27 241.684 1293.08 244.282C1341.64 251.362 1363.22 300.64 1340.43 342.689C1331.35 359.437 1312.25 368.4 1293.94 372.881C1279.96 375.197 1247.5 374.255 1231.68 374.184L1231.58 426.96C1216.86 427.112 1201.78 426.959 1187.03 426.955L1187.13 242.276ZM1231.65 339.153C1252 339.253 1280.13 342.598 1295.99 330.919C1302.7 323.186 1306.14 317.172 1305.3 306.448C1302.41 269.591 1258.87 278.708 1233.45 277.705C1230.52 281.52 1231.55 296.263 1231.54 301.994C1231.5 314.355 1231.61 326.786 1231.65 339.153Z" fill="#24272B"/>
<path d="M1953.54 242.537L1999.91 242.545L2082.64 427.257L2035.65 427.159L2019.14 388.438L2001.89 388.432L1932.75 388.381C1927.96 400.863 1922.02 414.902 1916.71 427.148C1901.7 427.278 1886.69 427.276 1871.67 427.142C1897.17 366.84 1926.28 302.19 1953.54 242.537ZM1947.36 354.219L1976.14 354.122L2005.66 354.1C2001.99 346.23 1977.6 287.826 1975.5 285.969C1967.23 308.406 1956.72 332.022 1947.36 354.219Z" fill="#175F3F"/>
<path d="M1588.95 283.75C1697.28 274.336 1708.69 413.524 1613.58 428.214C1570.2 433.121 1530.12 414.229 1522.31 368.134C1519.07 348.926 1523.67 329.218 1535.09 313.437C1548.39 295.295 1567.28 286.986 1588.95 283.75ZM1604.74 394.323C1651.5 384.186 1643 314.717 1595.1 317.693C1547.36 328.539 1555.73 397.212 1604.74 394.323Z" fill="#24272B"/>
<path d="M889.08 283.54C910.66 281.773 930.77 284.706 948.78 297.697C964.31 308.998 974.61 326.101 977.33 345.114C980.28 364.434 975.45 384.133 963.9 399.896C951.14 417.008 933.51 425.263 912.81 428.205C870.21 433.188 830.4 412.632 823 367.877C819.88 348.776 824.4 329.214 835.59 313.42C848.83 295.102 867.37 286.971 889.08 283.54ZM904.29 394.232C952.02 385.209 944.19 314.794 895.87 317.386C848.01 327.262 855.56 395.918 904.29 394.232Z" fill="#24272B"/>
<path d="M685.4 242.317L795.16 242.353L795.21 311.741C795.27 332.572 795.91 352.881 794.28 373.661C790.02 427.677 738.5 438.28 694.2 423.532C680.82 417.444 675.62 413.438 666.386 401.963C673.74 392.215 683.32 381.231 691.23 371.712C699.72 383.524 708.1 392.852 723.92 392.818C739.62 392.783 748.29 386.563 750.02 370.467C751.33 358.364 750.83 346.35 750.79 334.151L750.76 277.34C728.94 277.492 707.12 277.513 685.3 277.402C685.11 265.708 685.14 254.01 685.4 242.317Z" fill="#24272B"/>
<path d="M1709.05 252.056C1722.93 252.348 1737.3 252.156 1751.22 252.152L1751.25 287.671L1788.27 287.751L1788.29 321.223C1775.94 321.273 1763.59 321.259 1751.25 321.181C1751.34 334.497 1751.39 349.499 1750.99 362.715C1750.16 390.402 1759.38 402.888 1787.04 389.607L1795.62 413.207C1796.62 415.648 1796.6 415.927 1797 418.433C1787.12 437.856 1715.02 432.893 1710.92 394.426C1708.17 368.645 1708.89 347.008 1709.04 321.174L1687.49 321.281V287.62L1708.95 287.727L1709.05 252.056Z" fill="#24272B"/>
<path d="M1452.59 231.722L1495.22 231.893L1495.23 427.172C1481.03 427.263 1466.83 427.25 1452.63 427.133L1452.59 231.722Z" fill="#24272B"/>
<path d="M2100.37 242.542L2144.11 242.487L2144.18 427.049C2130.98 427.717 2113.76 427.236 2100.25 427.256L2100.37 242.542Z" fill="#175F3F"/>
<path d="M1376.04 285.337L1418.56 285.346L1418.52 426.953C1404.54 427.231 1390.05 426.979 1376.03 426.923L1376.04 285.337Z" fill="#24272B"/>
<path d="M1394.83 220.783C1406.9 221.583 1418.53 226.209 1421.18 239.515C1422.39 245.406 1421.13 251.537 1417.69 256.471C1412.32 264.202 1405.79 265.84 1397.38 267.439C1384.93 266.327 1372.97 262.153 1370.51 247.994C1369.42 241.939 1370.93 235.705 1374.66 230.815C1380.11 223.679 1386.68 221.995 1394.83 220.783Z" fill="#24272B"/>
<path d="M2118.78 491.648C2123.02 491.91 2126.65 493.66 2130.58 495.248C2132.06 493.689 2132.68 493.217 2134.33 491.909L2136.09 492.566C2140.16 500.617 2138.7 533.261 2128.83 537.722C2121.88 540.864 2109.05 539.741 2105.59 533.526L2106.92 529.632C2111.63 532.102 2115.69 533.691 2121.21 533.862C2127 534.042 2132.28 528.614 2131.74 522.783L2130.15 521.606C2124.04 520.576 2120.98 527.623 2112.29 523.247C2108.1 521.14 2105.03 517.31 2103.88 512.755C2102.7 508.326 2103.34 503.606 2105.67 499.657C2109.01 494.071 2113.02 493.012 2118.78 491.648ZM2123.91 518.827C2127.72 517.563 2130.55 514.341 2131.31 510.4C2132.07 506.46 2130.64 502.416 2127.58 499.826C2124.51 497.236 2120.29 496.503 2116.53 497.909C2110.87 500.027 2107.95 506.29 2109.96 511.99C2111.97 517.691 2118.18 520.732 2123.91 518.827Z" fill="#24272B" fill-opacity="0.988235"/>
<path d="M1393.86 491.622C1396.1 491.819 1405.14 495.556 1405.91 495.298C1407.71 494.697 1408.18 492.405 1410.79 491.795C1413.64 495.778 1412.73 525.717 1410.65 531.152C1407.26 539.989 1384.51 542.641 1380.67 533.077L1382.57 529.88C1390.73 534.088 1408.87 535.262 1407.44 523.471C1406.87 522.768 1406.3 522.064 1405.73 521.36C1398.99 523.183 1394.79 526.49 1387.87 523.279C1383.69 521.305 1380.52 517.688 1379.1 513.287C1375.27 501.418 1383.22 494.297 1393.86 491.622ZM1398.93 518.874C1402.77 517.654 1405.65 514.452 1406.45 510.506C1407.26 506.56 1405.86 502.487 1402.81 499.861C1399.76 497.235 1395.52 496.467 1391.74 497.853C1386.07 499.933 1383.09 506.165 1385.05 511.882C1387.01 517.599 1393.17 520.705 1398.93 518.874Z" fill="#24272B" fill-opacity="0.988235"/>
<path d="M1838.3 478.139L1843.16 478.947C1845.08 482.086 1842.94 488.826 1844.41 495.048C1849.02 495.717 1847.04 494.628 1851.04 493.316C1870.71 486.863 1875.51 508.451 1867.22 521.802C1854.62 531.629 1853.91 522.203 1844.08 523.284L1843.08 526.003L1839.65 525.722C1836.93 522.06 1838.25 486.035 1838.3 478.139ZM1858.86 520.914C1870.97 511.408 1867.2 496.688 1851.28 497.183C1840.25 505.462 1842 520.293 1854.8 520.887C1856.15 520.938 1857.51 520.946 1858.86 520.914Z" fill="#24272B"/>
<path d="M846.566 491.638C863.516 493.876 869.526 511.005 856.966 523.554C852.076 528.444 841.946 524.222 836.496 523.116L835.786 524.702C835.786 528.963 836.566 534.808 834.706 538.175C832.386 538.608 832.546 538.65 830.406 537.678C829.396 531.047 830.056 500.697 830.466 493.356L832.306 491.917L834.426 492.563L836.006 496.043C840.476 493.569 841.536 492.886 846.566 491.638ZM850.706 519.872C856.606 517.684 859.636 511.149 857.496 505.23C855.366 499.311 848.856 496.221 842.916 498.305C836.906 500.416 833.766 507.022 835.936 513.015C838.096 519.007 844.726 522.087 850.706 519.872Z" fill="#24272B" fill-opacity="0.988235"/>
<path d="M1172.51 491.622C1174.56 491.786 1176.58 492.134 1178.57 492.662C1192.15 496.394 1194.31 519.392 1180.83 525.037C1173.41 528.146 1169.75 525.149 1163.04 522.634L1162.46 524.275C1162.62 529.312 1163.44 534.536 1160.8 538.63L1158.74 538.43C1156.21 532.3 1154.81 496.375 1158.55 491.987C1161.64 492.593 1160.62 492.344 1163.06 495.828C1167.1 493.55 1168.05 493.045 1172.51 491.622ZM1177.76 520.746C1188.42 511.365 1185.32 496.753 1171.38 497.185C1170.67 497.21 1169.97 497.247 1169.27 497.296C1158.09 506.86 1160.69 521.326 1175.55 520.861C1176.28 520.834 1177.02 520.796 1177.76 520.746Z" fill="#24272B" fill-opacity="0.988235"/>
<path d="M1713.16 492.083C1722.55 491.105 1730.96 497.897 1731.99 507.28C1733.01 516.663 1726.26 525.108 1716.88 526.176C1707.44 527.251 1698.92 520.444 1697.89 510.997C1696.86 501.551 1703.71 493.068 1713.16 492.083ZM1719.74 519.654C1725.39 517.096 1728.02 510.541 1725.7 504.79C1723.38 499.04 1716.95 496.138 1711.1 498.209C1707.1 499.629 1704.19 503.132 1703.54 507.332C1702.88 511.532 1704.58 515.753 1707.97 518.325C1711.35 520.898 1715.87 521.408 1719.74 519.654Z" fill="#24272B" fill-opacity="0.988235"/>
<path d="M978.676 492.068C987.996 491.37 996.156 498.263 997.026 507.569C997.906 516.874 991.156 525.162 981.876 526.206C975.706 526.898 969.656 524.209 966.036 519.173C962.416 514.136 961.796 507.539 964.416 501.918C967.046 496.298 972.496 492.531 978.676 492.068ZM984.856 519.573C990.486 516.958 993.046 510.362 990.656 504.633C988.266 498.904 981.776 496.088 975.956 498.255C971.986 499.734 969.136 503.268 968.546 507.463C967.946 511.659 969.696 515.844 973.096 518.369C976.506 520.895 981.016 521.357 984.856 519.573Z" fill="#24272B" fill-opacity="0.988235"/>
<path d="M720.456 492.084C729.686 491.167 737.966 497.747 739.156 506.938C740.346 516.13 734.016 524.605 724.866 526.072C718.696 527.061 712.486 524.617 708.636 519.691C704.796 514.765 703.936 508.139 706.396 502.396C708.856 496.653 714.246 492.702 720.456 492.084ZM726.726 519.743C732.506 517.308 735.296 510.699 732.986 504.858C730.686 499.016 724.146 496.081 718.256 498.247C714.316 499.693 711.476 503.156 710.826 507.297C710.176 511.438 711.816 515.607 715.116 518.191C718.416 520.775 722.856 521.369 726.726 519.743Z" fill="#24272B" fill-opacity="0.988235"/>
<path d="M1130.37 492.06C1139.77 491.426 1147.92 498.504 1148.62 507.904C1149.31 517.303 1142.28 525.498 1132.88 526.247C1123.41 527.003 1115.13 519.9 1114.43 510.419C1113.73 500.937 1120.88 492.699 1130.37 492.06ZM1135.72 519.881C1141.62 517.616 1144.6 511.02 1142.4 505.094C1140.19 499.168 1133.63 496.122 1127.68 498.266C1123.78 499.672 1120.93 503.066 1120.23 507.153C1119.52 511.241 1121.07 515.392 1124.27 518.025C1127.48 520.658 1131.85 521.366 1135.72 519.881Z" fill="#24272B" fill-opacity="0.988235"/>
<path d="M1812.16 492.096C1821.6 491.309 1829.88 498.345 1830.64 507.791C1831.39 517.237 1824.33 525.498 1814.88 526.221C1805.48 526.94 1797.26 519.918 1796.51 510.517C1795.76 501.115 1802.76 492.878 1812.16 492.096ZM1817.72 519.894C1823.65 517.642 1826.65 511.032 1824.45 505.088C1822.24 499.144 1815.66 496.09 1809.69 498.249C1803.67 500.431 1800.57 507.107 1802.8 513.117C1805.03 519.127 1811.73 522.17 1817.72 519.894Z" fill="#24272B" fill-opacity="0.988235"/>
<path d="M1613.82 491.562C1616.14 491.83 1619.9 492.384 1621.43 493.81C1628.11 499.357 1636.69 489.903 1644.65 492.312C1651.55 494.4 1651.39 504.338 1651.62 510.173C1651.82 514.957 1653.21 524.328 1648.35 526.078C1642.11 521.69 1648.51 505.011 1643.36 499.844C1634.33 490.78 1627.76 501.602 1627.59 510.554L1627.58 511.731C1627.84 517.148 1629.18 522.752 1625 526.66L1623.36 526.504C1618 521.057 1629.17 487.351 1607.55 499.552C1602.21 502.567 1604.26 519.222 1603.87 525.175C1601.46 525.957 1601.61 526.054 1599.18 525.464C1597.18 521.891 1598.45 512.443 1598.1 508.016C1596.6 488.788 1600.4 496.499 1613.82 491.562Z" fill="#24272B" fill-opacity="0.984314"/>
<path d="M1209.71 491.586C1218.96 492.246 1228.78 498.043 1228 508.367C1222.36 515.026 1210.75 508.816 1202.87 512.061L1202.32 513.964C1206.29 522.466 1213.63 521.845 1221.3 518.855L1221.74 518.312L1223.27 518.545L1224.46 520.21L1223.88 522.406C1219.68 527.323 1210.02 527.824 1205.13 524.939C1189.26 515.573 1193.24 496.86 1209.71 491.586ZM1217.64 506.653L1220.87 506.311C1223.24 499.003 1212.74 496.797 1207.12 497.311C1204.55 499.854 1202.91 500.938 1202.06 504.426C1204.49 508.089 1213.19 506.779 1217.64 506.653Z" fill="#24272B" fill-opacity="0.984314"/>
<path d="M1572.38 491.671C1581.46 492.624 1591.14 498.495 1589.66 508.793C1583.55 515.307 1571.89 508.532 1564.85 511.944L1564.39 514.008C1567.9 522.869 1576.16 521.481 1583.43 518.798L1584.96 518.19L1586.46 520.144C1583.76 528.083 1573.07 527.772 1566.77 524.814C1562.65 522.84 1559.54 519.238 1558.18 514.874C1556.61 509.865 1557.22 504.428 1559.85 499.89C1563.03 494.447 1566.8 493.122 1572.38 491.671ZM1579.64 506.633L1582.84 506.256C1585.32 499.132 1574.96 496.844 1569.44 497.301C1566.71 499.759 1565.38 500.519 1564.08 503.81L1564.79 505.681C1568.76 507.308 1575.11 506.724 1579.64 506.633Z" fill="#24272B" fill-opacity="0.988235"/>
<path d="M883.706 491.612C892.526 492.642 903.966 499.283 901.346 509.251C895.266 514.82 884.306 508.404 875.816 511.858L875.316 513.751C879.196 521.86 887.636 521.594 894.936 518.919C895.456 518.241 895.056 518.643 896.466 518.17L897.866 519.961L897.146 522.464C892.726 527.733 884.506 527.503 878.696 524.898C874.486 522.996 871.286 519.405 869.866 515.01C868.256 510.023 868.816 504.587 871.406 500.032C874.476 494.627 878.236 493.185 883.706 491.612ZM891.636 506.669L894.446 506.377C897.866 499.836 886.366 496.971 881.226 497.206C878.656 499.534 876.806 500.703 875.776 503.983C877.996 508.157 886.956 506.781 891.636 506.669Z" fill="#24272B" fill-opacity="0.988235"/>
<path d="M1271 491.658C1275.21 491.806 1278.7 492.322 1281.88 495.4C1287.28 500.622 1289.92 521.529 1284.07 526.453C1280.78 525.742 1282.19 526.56 1280 523.482C1270.84 522.842 1271.05 531.738 1258.75 521.478C1254.35 503.592 1271.27 509.425 1279.46 504.098L1279.88 502.069C1275.43 494.874 1263.58 500.829 1259.06 497.195C1261.23 492.992 1266.85 492.449 1271 491.658ZM1274.51 521.464C1277.8 519.112 1278.44 518.926 1280.37 515.532V513.263C1276.7 509.959 1275.58 510.487 1270.51 510.752C1269.76 510.791 1269.02 510.835 1268.27 510.885C1265.16 512.282 1264.94 512.275 1263.33 515.113C1264.21 521.339 1269.23 521.683 1274.51 521.464Z" fill="#24272B" fill-opacity="0.988235"/>
<path d="M1056.92 491.694C1060.05 491.874 1064.34 492.429 1066.85 494.388C1073.43 499.511 1075.71 520.741 1070.39 526.495L1068.94 526.536L1066.13 523.524C1057.27 522.915 1057.32 531.526 1045.03 521.858C1039.73 503.285 1057.75 509.118 1066.05 504.256L1066.32 502.473C1060.7 494.572 1051.72 501.034 1045.11 497.174C1047.01 493.326 1053.07 492.389 1056.92 491.694ZM1061.31 521.294C1064.55 518.591 1065.27 518.345 1066.7 514.571C1064.98 509.064 1058.26 510.589 1053.26 510.805C1049.9 513.655 1050.59 512.341 1049.16 516.164C1051.54 521.923 1055.79 521.742 1061.31 521.294Z" fill="#24272B" fill-opacity="0.988235"/>
<path d="M1897.03 477.826L1900.95 478.673C1905.69 483.454 1900.88 488.879 1902.59 494.22C1905.54 495.47 1911.77 492.055 1916.8 491.838C1930.33 491.254 1930.65 520.891 1923.75 526.151C1920.54 523.055 1921.61 509.003 1921.71 504.259C1921.27 502.937 1920.59 500.858 1919.5 499.94C1902.3 485.431 1902.5 514.21 1902.46 524.847L1901.2 525.958L1898.56 525.778C1895.99 523.02 1896.83 517.179 1896.83 513.11C1896.83 501.353 1896.95 489.584 1897.03 477.826Z" fill="#24272B" fill-opacity="0.984314"/>
<path d="M1482.63 519.454C1485.22 512.797 1491.35 494.792 1497.63 491.966C1498.72 496.69 1491.39 511.771 1489.18 516.767C1485.19 526.775 1479.6 546.921 1465.28 536.385L1465.17 534.227C1469.41 530.998 1472.79 535.884 1477.62 530.565C1480.38 521.272 1469.7 501.819 1465.31 492.119L1469.89 492.498C1475.27 496.609 1480.17 512.681 1482.63 519.454Z" fill="#24272B" fill-opacity="0.984314"/>
<path d="M1355.87 491.616C1363.48 492.759 1367.11 494.021 1369.45 502.29C1371.22 508.553 1373.59 523.873 1365.67 526.103C1360.12 518.972 1372.95 498.707 1353.25 496.961C1337.01 504.607 1352.08 521.003 1342.22 526.244L1340.35 525.332C1338.69 521.378 1339.29 501.13 1339.83 496.1C1340.09 493.767 1349.57 493.646 1355.87 491.616Z" fill="#24272B" fill-opacity="0.984314"/>
<path d="M1020.65 491.676C1022.76 491.744 1024.86 492.07 1026.9 492.648C1037.98 495.911 1037.06 517.048 1034.47 525.661C1031.71 526.199 1033.02 526.382 1030.44 524.854C1026.56 514.12 1036.93 494.504 1015.87 497.959C1006.12 506.968 1013.26 521.156 1009.36 526.282C1007.25 526.239 1008.26 526.331 1006 524.126C1003.83 518.745 1003 496.096 1007.76 492.13L1009.63 492.575C1010.11 494.621 1009.81 494.059 1010.85 495.82C1014.98 493.572 1015.99 493.034 1020.65 491.676Z" fill="#24272B" fill-opacity="0.988235"/>
<path d="M1996.69 491.649C2002.28 492.269 2006.47 493.069 2008.88 498.765C2011.93 505.997 2012.97 518.104 2010.02 525.349L2008.14 525.937L2006.03 524.817C2002.21 515.253 2012.25 495.457 1992.79 497.652L1991.64 497.788C1980.41 507.674 1990.68 520.982 1984.89 525.928L1981.41 525.594L1980.3 523.526C1980.75 516.034 1978.01 496.244 1983.3 492.104L1985.16 492.592L1986.68 495.621C1990.96 493.297 1991.78 492.877 1996.69 491.649Z" fill="#24272B" fill-opacity="0.980392"/>
<path d="M746.866 491.308C748.196 491.687 751.136 492.148 752.216 492.835C754.366 494.191 751.266 515.098 756.036 520.027C757.306 521.347 758.626 521.954 760.476 521.904C777.376 521.448 767.226 500.206 773.686 492.473L776.156 492.457C777.986 495.385 777.346 499.969 777.286 503.706C777.296 508.972 779.176 524.741 774.596 526.32C773.246 525.055 771.876 523.806 770.486 522.574C744.476 537.794 746.706 507.884 746.866 491.308Z" fill="#24272B" fill-opacity="0.988235"/>
<path d="M1938.28 491.955C1939.09 492.025 1943.92 492.317 1943.96 493.476C1944.27 501.884 1943.1 511.31 1946.84 519.103C1948.1 521.717 1949.59 521.953 1952.02 522.554C1969.99 518.726 1958.49 499.507 1965.53 492.2L1967.73 492.383C1969.22 494.825 1968.69 496.97 1968.73 500.206C1968.63 506.878 1970.27 521.992 1967.2 526.571C1964.18 526.151 1964.79 525.841 1962.06 523.121C1934.14 533.798 1938.24 510.438 1938.28 491.955Z" fill="#24272B" fill-opacity="0.988235"/>
<path d="M1448.83 491.607C1453.52 491.903 1458.63 492.18 1462.24 495.382L1461.94 497.117C1456.56 501.386 1448.36 492.908 1442.42 500.322C1445.21 505.738 1458.75 506.775 1464.32 515.54C1464.86 522.521 1457.75 525.027 1451.94 526.594C1446.3 526.305 1441.53 526.135 1436.81 522.705L1437.56 519.954C1442.54 517.582 1447.48 522.344 1454.83 520.182C1457.51 517.798 1456.99 519.169 1457.24 516.302C1452.71 511.484 1438.64 511.038 1437.11 503.24C1435.61 495.649 1442.86 493.062 1448.83 491.607Z" fill="#24272B" fill-opacity="0.988235"/>
<path d="M1513.69 491.616C1517.34 491.858 1525.23 492.172 1527.11 495.474C1522.92 502.956 1517.21 493.503 1508.57 499.395C1508.33 506.354 1524.02 506.122 1529.44 516.142C1529.44 522.912 1522.47 525.127 1516.81 526.615C1512.37 526.415 1504.4 525.851 1501.98 521.887C1504.68 515.439 1514.65 523.664 1522.55 518.907L1522.7 517.629C1517.08 510.47 1499.9 509.706 1501.27 498.709C1504.03 494.79 1509.2 492.712 1513.69 491.616Z" fill="#24272B" fill-opacity="0.988235"/>
<path d="M686.456 505.226C690.176 497.994 696.726 483.646 703.606 480.558L704.616 481.789C703.546 486.821 700.316 491.475 697.616 495.956L689.236 510.372C689.266 514.277 689.616 521.857 688.686 525.32L686.406 526.012C681.886 524.834 683.256 523.079 682.926 518.288C682.846 517.013 683.356 512.172 682.866 511.106C678.636 501.884 671.096 489.963 665.952 481.312L670.466 481.507C676.476 484.473 683.066 498.879 686.456 505.226Z" fill="#24272B" fill-opacity="0.988235"/>
<path d="M943.605 491.744C947.635 492.117 954.695 491.995 956.455 495.998C953.745 502.198 945.825 493.916 937.325 499.936L937.385 501.105C942.295 506.212 956.716 508.394 958.066 515.68C959.616 523.994 950.135 525.76 943.965 526.726C939.925 526.104 932.816 525.531 931.396 521.414C935.486 515.219 939.406 523.857 952.146 519.033C954.506 513.48 933.065 510.889 932.005 503.088C930.885 494.907 937.455 493.213 943.605 491.744Z" fill="#24272B" fill-opacity="0.988235"/>
<path d="M1686.16 478.48C1690.4 478.269 1694.71 477.387 1697.3 481.378C1696.05 482.797 1689.35 485.023 1686.9 486.01C1685.44 488.877 1685.89 487.322 1686.13 490.968C1690.47 494.075 1691.66 490.604 1695.25 493.483L1695.02 496.497C1690.83 499.409 1691.83 495.452 1686.41 498.145C1685.37 502.074 1685.93 513.499 1686 518.135L1685.93 524.886C1683.79 526.54 1685.05 526.01 1681.76 525.793C1677.66 519.792 1681.75 504.072 1679.66 497.988C1677.84 497.628 1676.71 497.389 1674.93 496.852L1674.75 493.087C1684.44 489.53 1676.82 486.147 1686.16 478.48Z" fill="#24272B"/>
<path d="M1297.85 483.739C1300.35 484.174 1300.62 484.258 1302.98 485.183C1302.98 487.943 1303.08 488.25 1303.61 490.84C1305.74 492.951 1307.76 492.26 1311.54 492.386C1313.27 494.141 1312.56 493.099 1312.87 496.223C1311.06 497.773 1307.81 497.357 1304.91 497.494L1303.72 498.827C1303.24 504.401 1302.12 518.074 1307.28 520.8C1310.69 520.548 1312.03 520.125 1315.09 521.691L1313.69 524.926C1291.19 534.245 1300.69 504.383 1296.85 497.486L1293.18 497.048C1292.09 494.374 1292.25 495.733 1292.81 492.818L1296.27 492.169C1298.41 489.737 1297.72 487.697 1297.85 483.739Z" fill="#24272B" fill-opacity="0.988235"/>
<path d="M2023.23 483.796C2025.67 484.181 2026.46 484.105 2028.41 485.657C2028.04 489.261 2027.82 489.943 2030.44 492.18C2033.16 492.125 2035.24 491.762 2037.6 493.005C2037.72 496.54 2038.33 495.213 2036.46 497.411C2034.26 497.458 2032.07 497.479 2029.87 497.474C2027.38 500.487 2027.4 518.065 2032.27 520.745C2035.72 520.521 2037.05 520.132 2040.15 521.684C2039.27 524.031 2039.43 523.958 2037.45 525.448C2033.37 526.482 2032.48 527.024 2028.53 526.134C2019.22 519.925 2025.14 505.679 2022.15 497.763L2018.08 496.89C2017.09 493.919 2017.02 495.306 2017.94 492.591L2021.35 492.24C2023.67 490.164 2022.97 487.846 2023.23 483.796Z" fill="#24272B" fill-opacity="0.988235"/>
<path d="M1537.1 484.001C1539.77 484.351 1539.86 484.215 1542.25 485.657C1542.09 488.35 1542 488.224 1542.83 490.759C1545.6 493.12 1546.5 491.771 1551.38 492.692L1552.41 494.876L1551.73 496.644C1548.36 497.445 1546.99 497.514 1543.5 497.753C1541.46 501.254 1542.66 513.873 1543.72 518.014C1544.28 520.215 1544.68 519.788 1546.69 520.833C1550.04 520.612 1551.25 520.415 1554.37 521.639C1553.71 523.148 1553.27 523.742 1552.4 525.17C1530.01 532.553 1540.1 505.735 1536.17 497.666L1531.93 497.148L1531.16 494.909C1534.67 489.145 1532.12 494.893 1536.76 491.061L1537.1 484.001Z" fill="#24272B"/>
<path d="M1782.4 491.959C1785.01 492.191 1785.39 492.312 1787.81 492.986C1788.82 501.948 1790.02 526.906 1785.32 535.052C1783.31 538.544 1780.05 538.8 1776.35 539.429C1772.35 537.812 1772.43 538.611 1770.6 535.673C1772.69 533.544 1775.9 533.742 1779.68 532.751C1784.08 526.113 1782.48 500.96 1782.4 491.959Z" fill="#24272B" fill-opacity="0.984314"/>
<path d="M2070.37 495.779C2096.45 481.397 2099.28 516.07 2093.56 525.038L2091.29 525.565C2085.65 520.691 2095.83 488.064 2072.94 499.427C2070.67 498.971 2070.53 499.173 2068.87 497.648L2070.37 495.779Z" fill="#24272B" fill-opacity="0.984314"/>
<path d="M1083.44 478.267C1086.69 478.573 1086.63 478.059 1088.9 479.679C1090.07 491.306 1089.26 513.807 1089.18 526.228C1087.48 526.113 1085.96 525.849 1084.29 525.585C1082.56 522.508 1083.4 484.6 1083.44 478.267Z" fill="#24272B"/>
<path d="M1235.52 491.964C1240.4 492.59 1238.71 491.697 1241.91 495.203C1246.54 494.002 1248.88 490.55 1253.27 493.864L1253.1 495.816C1251.4 498.165 1251.29 498.443 1248.57 499.426C1247.1 499.96 1245.63 500.474 1244.16 500.97C1242.02 503.75 1242.2 504.417 1241.73 508.103L1241.6 509.206C1241.76 514.211 1242.67 522.325 1239.69 526.145L1237.67 525.494C1234.31 520.004 1235.62 500.193 1235.52 491.964Z" fill="#24272B" fill-opacity="0.984314"/>
<path d="M909.256 491.474C912.566 492.276 913.426 492.772 915.776 495.085C920.436 493.077 922.726 490.828 926.756 494.411L926.636 496.63C923.926 499.288 920.546 499.738 917.066 501.54C915.116 505.005 915.306 506.216 915.186 510.206C915.286 514.333 916.056 523.02 913.696 526.047L911.596 525.939C907.656 520.83 909.196 499.095 909.256 491.474Z" fill="#24272B" fill-opacity="0.980392"/>
<path d="M788.306 491.503C792.906 492.668 791.236 491.735 794.626 495.003C799.476 493.121 801.736 491.025 806.006 494.436L805.886 496.684C803.856 498.682 799.526 499.605 796.086 501.558C794.276 504.866 794.416 505.213 794.246 509.147L794.216 510.206C794.206 514.949 794.786 518.209 794.216 523.103C792.166 526.102 793.536 525.126 789.876 525.986C787.026 523.118 788.316 497.763 788.306 491.503Z" fill="#24272B" fill-opacity="0.976471"/>
<path d="M1739.87 491.71L1743.45 492.432C1744.86 494.198 1744.78 494.263 1746.67 495.434C1750.84 493.301 1751.44 492.993 1756.07 492.53L1756.94 493.501C1752.1 501.159 1746.23 499.071 1745.6 509.206C1745.59 512.702 1746.03 523.435 1744.62 525.738L1741.34 525.887C1738.72 521.46 1739.78 498.456 1739.87 491.71Z" fill="#24272B" fill-opacity="0.984314"/>
<path d="M2072.94 499.427C2068.15 507.777 2072.86 521.317 2067.67 526.064L2065.61 525.835C2062.91 519.462 2063.99 500.31 2065.75 493.181C2066.03 492.04 2067.28 492.167 2068.34 491.947C2069.76 493.212 2069.45 493.143 2070.15 495.142L2070.37 495.779L2068.87 497.648C2070.53 499.173 2070.67 498.971 2072.94 499.427Z" fill="#24272B" fill-opacity="0.972549"/>
<path d="M2047.26 491.912C2049.55 492.145 2050.61 492.44 2052.78 493.003C2053.69 497.482 2053.24 520.254 2053.22 526.189C2051.37 526.068 2050.5 525.781 2048.71 525.335C2045.84 520.077 2047.2 499.239 2047.26 491.912Z" fill="#24272B"/>
<path d="M1322.15 491.736C1323.69 491.998 1325.12 492.385 1326.64 492.759C1329.44 497.37 1328.03 519.674 1327.92 526.176C1325.69 526.144 1325.58 526.108 1323.41 525.56C1320.81 520.103 1322.1 499.155 1322.15 491.736Z" fill="#24272B" fill-opacity="0.980392"/>
</svg>
